<svg width="149" height="24" viewBox="0 0 149 24" fill="none" xmlns="http://www.w3.org/2000/svg">
<path d="M17.7914 17.272C16.3194 18.744 14.1114 19.544 12.1594 19.544C6.62338 19.544 4.47938 15.672 4.44738 11.96C4.41538 8.216 6.75138 4.184 12.1594 4.184C14.1114 4.184 16.0954 4.856 17.5674 6.296L20.3834 3.576C18.0794 1.304 15.1994 0.151999 12.1594 0.151999C4.06337 0.151999 0.255375 6.104 0.287375 11.96C0.319375 17.784 3.83938 23.512 12.1594 23.512C15.3914 23.512 18.3674 22.456 20.6714 20.184L17.7914 17.272ZM29.8759 6.904C24.8519 6.904 21.7159 10.616 21.7159 15.128C21.7159 19.672 24.7879 23.352 29.9079 23.352C35.0279 23.352 38.1319 19.672 38.1319 15.128C38.1319 10.616 34.8999 6.904 29.8759 6.904ZM29.9079 10.456C32.5319 10.456 34.1959 12.76 34.1959 15.128C34.1959 17.528 32.7559 19.768 29.9079 19.768C27.0599 19.768 25.6199 17.528 25.6199 15.128C25.6199 12.76 27.0919 10.456 29.9079 10.456ZM40.8269 0.631998V23H44.6989V0.631998H40.8269ZM55.5321 6.904C50.5081 6.904 47.3721 10.616 47.3721 15.128C47.3721 19.672 50.4441 23.352 55.5641 23.352C60.6841 23.352 63.7881 19.672 63.7881 15.128C63.7881 10.616 60.5561 6.904 55.5321 6.904ZM55.5641 10.456C58.1881 10.456 59.8521 12.76 59.8521 15.128C59.8521 17.528 58.4121 19.768 55.5641 19.768C52.7161 19.768 51.2761 17.528 51.2761 15.128C51.2761 12.76 52.7481 10.456 55.5641 10.456ZM66.4831 7.224V23H70.3871V14.68C70.3871 11.768 72.2751 10.68 74.3231 10.68C75.6031 10.68 76.3391 11.032 77.1391 11.704L78.8991 8.312C78.0351 7.448 76.4671 6.808 74.8351 6.808C73.2351 6.808 71.6031 7.096 70.3871 9.048L70.0991 7.224H66.4831ZM102.118 0.599998H97.3821L90.5981 18.04L83.8461 0.599998H79.1101L88.4221 23.096H92.8061L102.118 0.599998ZM108.845 6.904C103.821 6.904 100.685 10.616 100.685 15.128C100.685 19.672 103.757 23.352 108.877 23.352C113.997 23.352 117.101 19.672 117.101 15.128C117.101 10.616 113.869 6.904 108.845 6.904ZM108.877 10.456C111.501 10.456 113.165 12.76 113.165 15.128C113.165 17.528 111.725 19.768 108.877 19.768C106.029 19.768 104.589 17.528 104.589 15.128C104.589 12.76 106.061 10.456 108.877 10.456ZM121.083 3.192V7.256H118.139V10.616H121.083V17.432C121.083 21.368 123.323 23.32 126.747 23.192C127.931 23.16 128.859 22.968 129.979 22.52L128.891 19.192C128.315 19.48 127.611 19.672 127.003 19.672C125.787 19.672 124.955 18.936 124.955 17.432V10.616H129.339V7.256H124.987V2.776L121.083 3.192ZM147.912 16.504C148.52 10.008 145.224 6.744 139.944 6.744C134.824 6.744 131.56 10.2 131.56 15C131.56 20.056 134.792 23.416 140.232 23.416C142.632 23.416 145.352 22.584 147.016 20.856L144.52 18.392C143.624 19.32 141.736 19.864 140.296 19.864C137.544 19.864 135.848 18.456 135.592 16.504H147.912ZM135.656 13.272C136.232 11.224 137.96 10.2 140.072 10.2C142.312 10.2 143.912 11.224 144.168 13.272H135.656Z" fill="black"/>
</svg>
